<?xml version="1.0" standalone="no"?>
<!DOCTYPE svg PUBLIC "-//W3C//DTD SVG 20010904//EN"
 "http://www.w3.org/TR/2001/REC-SVG-20010904/DTD/svg10.dtd">
<svg version="1.0" xmlns="http://www.w3.org/2000/svg"
 width="1024.000000pt" height="1024.000000pt" viewBox="0 0 1024.000000 1024.000000"
 preserveAspectRatio="xMidYMid meet">
<metadata>
Created by potrace 1.16, written by Peter Selinger 2001-2019
</metadata>
<g transform="translate(0.000000,1024.000000) scale(0.100000,-0.100000)"
fill="#000000" stroke="none">
<path d="M4906 8029 c-422 -58 -807 -319 -1031 -697 l-46 -79 -147 -6 c-389
-16 -709 -154 -978 -421 -121 -121 -177 -200 -258 -364 -84 -169 -118 -290
-137 -483 -30 -300 38 -575 208 -852 l36 -57 -72 -150 c-179 -371 -195 -733
-52 -1106 169 -438 590 -781 1066 -870 99 -18 323 -26 441 -14 l51 5 60 -75
c211 -264 496 -437 825 -501 124 -24 347 -26 474 -4 316 55 612 223 816 465
29 35 64 75 78 90 l25 28 80 -10 c165 -20 413 8 595 68 126 41 307 137 422
224 123 93 216 189 300 313 242 358 308 761 188 1162 -17 55 -59 159 -95 231
-36 72 -65 135 -65 140 0 5 14 29 31 54 138 204 219 479 219 743 0 521 -319
1013 -803 1242 -205 96 -354 133 -581 142 l-149 6 -16 29 c-208 376 -559 643
-959 729 -112 24 -410 34 -526 18z m487 -89 c325 -68 624 -258 815 -515 54
-73 107 -163 100 -170 -2 -3 -52 -14 -111 -25 -308 -59 -559 -192 -778 -410
-89 -89 -152 -173 -234 -310 -33 -55 -63 -100 -66 -100 -4 0 -28 37 -54 83
-236 408 -588 654 -1050 733 -49 9 -91 17 -93 19 -7 7 87 152 147 227 125 156
357 327 544 399 99 38 240 75 339 88 109 15 326 5 441 -19z m-1606 -784 c-3
-12 -19 -66 -36 -121 -89 -290 -79 -628 27 -910 40 -107 73 -179 110 -242 l31
-52 -42 -5 c-23 -2 -87 -9 -142 -15 -231 -25 -476 -113 -680 -245 -149 -97
-339 -273 -431 -400 l-20 -28 -31 48 c-95 153 -151 298 -179 469 -19 121 -14
349 11 465 82 374 308 683 640 873 196 112 484 187 703 184 39 -1 43 -3 39
-21z m2861 14 c477 -60 880 -338 1077 -744 99 -204 135 -357 135 -579 0 -237
-66 -468 -191 -662 l-31 -49 -20 24 c-134 169 -267 293 -424 398 -212 142
-440 226 -680 252 -171 19 -185 21 -182 28 2 4 27 54 55 112 62 125 104 247
134 390 30 138 34 432 7 550 -14 63 -65 230 -84 278 -7 15 87 16 204 2z
m-2579 -32 c324 -68 612 -246 803 -494 51 -66 162 -244 156 -249 -2 -2 -50
-11 -106 -19 -181 -27 -306 -67 -466 -149 -128 -65 -237 -146 -362 -269 -116
-114 -100 -115 -166 17 -103 205 -149 381 -156 600 -6 221 12 338 85 528 l26
68 46 -7 c25 -3 88 -15 140 -26z m2311 -25 c73 -196 95 -329 87 -541 -8 -227
-53 -396 -164 -614 l-54 -108 -87 92 c-229 241 -535 396 -867 438 -43 5 -80
12 -83 15 -8 8 79 147 156 248 181 236 458 419 747 491 123 30 138 33 197 35
l47 1 21 -57z m-1320 -812 c0 -4 -13 -41 -30 -81 -104 -253 -131 -543 -74
-799 4 -21 -4 -16 -58 31 -146 129 -292 216 -468 281 -98 36 -267 77 -320 77
-16 0 -30 3 -30 6 0 31 175 192 298 274 185 124 443 212 640 219 23 0 42 -3
42 -8z m340 -17 c163 -33 349 -114 498 -216 71 -49 270 -234 261 -243 -2 -2
-46 -11 -96 -20 -271 -47 -492 -152 -693 -329 -46 -41 -86 -74 -87 -73 -1 2 5
43 14 92 20 119 13 364 -15 485 -17 70 -70 226 -107 314 -8 18 -4 19 71 12 43
-4 113 -14 154 -22z m-242 -159 c85 -231 100 -482 42 -712 -22 -87 -68 -203
-80 -203 -14 0 -71 160 -90 252 -39 186 -36 339 10 535 23 98 71 226 82 215 4
-4 20 -43 36 -87z m-1238 -379 c0 -2 -20 -42 -44 -89 -90 -177 -136 -374 -136
-587 0 -203 46 -411 121 -549 16 -30 28 -55 26 -56 -1 -1 -58 2 -127 6 -284
16 -563 119 -805 298 -65 48 -228 203 -277 264 l-30 37 33 43 c191 247 432
430 699 532 103 40 266 82 363 94 67 9 177 13 177 7z m2599 -11 c309 -45 572
-168 811 -378 81 -70 205 -207 243 -267 l17 -27 -92 -98 c-161 -171 -316 -282
-518 -372 -172 -76 -375 -123 -538 -123 l-82 0 26 53 c76 150 115 335 116 552
1 217 -45 403 -147 591 l-45 84 51 0 c28 0 99 -7 158 -15z m-2348 -11 c334
-62 620 -232 813 -483 26 -34 46 -64 44 -66 -9 -10 -198 28 -280 55 -150 51
-255 109 -399 222 -112 88 -300 288 -271 288 5 0 47 -7 93 -16z m1964 -31
c-179 -225 -422 -394 -681 -476 -86 -27 -231 -53 -240 -44 -20 19 209 257 327
340 87 61 220 129 317 161 93 31 235 64 281 65 l33 1 -37 -47z m-2080 -59
c175 -228 470 -428 741 -502 l69 -19 -60 -17 c-172 -47 -340 -127 -488 -233
-97 -69 -246 -214 -310 -301 l-46 -63 -31 60 c-122 243 -147 613 -59 881 39
115 110 261 128 259 3 0 29 -29 56 -65z m2223 14 c45 -81 100 -227 124 -330
30 -132 31 -375 1 -504 -23 -100 -71 -230 -104 -284 l-22 -35 -16 25 c-78 119
-240 277 -384 373 -99 67 -271 151 -375 183 -48 15 -96 30 -107 35 -19 7 -19
8 2 8 35 1 200 64 298 114 175 88 342 223 476 383 38 46 72 84 74 84 2 0 17
-24 33 -52z m-1272 -638 c-86 -130 -294 -303 -467 -388 -151 -74 -369 -141
-462 -142 l-28 0 32 45 c158 220 489 437 765 501 71 16 176 32 183 27 2 -1 -8
-21 -23 -43z m444 -1 c122 -35 264 -103 385 -184 97 -65 245 -201 312 -287
l44 -58 -38 0 c-48 0 -219 41 -304 73 -201 76 -404 214 -541 369 -64 73 -98
117 -98 129 0 12 137 -12 240 -42z m-255 -183 c63 -247 51 -478 -37 -748 -17
-53 -35 -95 -39 -92 -13 7 -75 209 -94 304 -26 124 -24 335 3 465 24 113 54
207 79 244 l17 26 23 -52 c13 -29 35 -95 48 -147z m-2245 -147 c117 -82 201
-128 305 -170 181 -72 382 -115 555 -120 41 -1 78 -3 82 -6 4 -2 -6 -32 -22
-68 -82 -182 -122 -379 -123 -590 0 -220 48 -426 144 -617 l49 -97 -36 -7
c-58 -11 -352 4 -428 21 -234 53 -458 166 -621 315 -248 226 -395 503 -435
822 -29 232 9 465 113 693 71 156 50 154 196 12 69 -67 169 -152 221 -188z
m4739 209 c102 -214 141 -371 141 -571 0 -213 -50 -413 -151 -607 -195 -373
-577 -636 -1015 -700 -76 -11 -284 -13 -331 -4 l-29 6 43 82 c46 91 103 249
129 366 28 120 25 414 -4 547 -22 98 -82 275 -116 341 -9 17 -16 33 -16 35 0
2 60 7 133 11 221 11 388 56 612 167 171 84 284 167 430 314 61 62 113 112
117 113 4 1 30 -44 57 -100z m-2744 -142 c-20 -103 -19 -336 1 -457 13 -81 72
-272 115 -376 7 -18 10 -35 6 -39 -10 -11 -109 -5 -203 12 -185 32 -380 115
-540 229 -90 65 -284 252 -284 274 0 6 12 11 26 11 44 0 251 50 343 82 47 16
129 52 181 79 95 49 279 180 334 238 16 17 31 29 33 28 1 -2 -4 -38 -12 -81z
m575 -109 c168 -112 340 -182 550 -222 47 -9 99 -20 115 -24 l30 -7 -105 -105
c-239 -237 -551 -386 -849 -406 -90 -6 -94 -5 -88 13 3 10 24 70 47 133 63
177 81 272 87 463 5 156 3 189 -24 323 -5 27 -2 26 63 -34 38 -35 116 -95 174
-134z m-1458 -393 c255 -264 526 -403 865 -446 52 -7 93 -17 92 -23 -1 -18
-82 -141 -148 -225 -131 -165 -295 -296 -501 -400 -104 -52 -241 -104 -307
-114 l-41 -7 -38 66 c-121 217 -182 513 -156 759 14 128 47 259 99 392 21 52
38 94 40 94 1 0 44 -43 95 -96z m2238 39 c139 -315 158 -651 54 -962 -38 -115
-119 -280 -141 -288 -21 -8 -166 33 -263 74 -222 96 -417 242 -561 421 -55 68
-179 245 -179 255 0 2 30 7 68 11 331 34 636 180 875 420 62 62 115 113 119
114 4 1 17 -19 28 -45z m-1136 -570 c85 -148 231 -324 360 -433 165 -138 332
-231 526 -291 58 -18 107 -34 109 -35 10 -8 -50 -81 -136 -165 -193 -185 -372
-282 -648 -351 -75 -19 -117 -22 -255 -22 -142 0 -181 4 -276 26 -229 54 -431
161 -596 316 -72 68 -168 177 -168 191 0 4 26 15 58 25 249 77 486 214 666
386 85 82 203 233 269 347 23 40 44 73 47 73 3 0 23 -30 44 -67z"/>
</g>
</svg>
